<?xml version="1.0" standalone="no"?><!DOCTYPE svg PUBLIC "-//W3C//DTD SVG 1.1//EN" "http://www.w3.org/Graphics/SVG/1.1/DTD/svg11.dtd"><svg t="1611149249456" class="icon" viewBox="0 0 1024 1024" version="1.1" xmlns="http://www.w3.org/2000/svg" p-id="2232" width="32" height="32" xmlns:xlink="http://www.w3.org/1999/xlink"><defs><style type="text/css"></style></defs><path d="M650.368 675.328l271.530667-271.530667 60.330666 60.373334-271.530666 271.530666-60.330667-60.373333z m-573.226667 30.208l422.4-422.4a42.666667 42.666667 0 0 1 60.288 0l60.373334 60.330667a42.666667 42.666667 0 0 1 0 60.330666l-422.4 422.4a42.666667 42.666667 0 0 1-60.330667 0L77.141333 765.866667a42.666667 42.666667 0 0 1 0-60.330667zM680.533333 162.474667l60.330667 60.330666a42.666667 42.666667 0 0 1 0 60.330667l-30.165333 30.165333a42.666667 42.666667 0 0 1-60.330667 0L589.994667 253.013333a42.666667 42.666667 0 0 1 0-60.330666l30.208-30.165334a42.666667 42.666667 0 0 1 60.330666 0z" fill="#2c2c2c" opacity=".3" p-id="2233"></path><path d="M891.733333 373.632c-110.634667-30.165333-181.034667-60.330667-211.2-90.496l-181.034666-181.034667L348.672 253.013333l180.992 181.034667c40.234667 40.192 70.4 110.592 90.538667 211.2l271.488-271.573333z" fill="#2c2c2c" p-id="2234"></path></svg>